# xmcd
#
# Track frame offsets:
#	150
#	15465
#	47986
#	66869
#	81816
#	88983
#	108867
#	129252
#	145476
#	163674
#	184686
#	206574
#	223183
#
# Disc length: 3258 seconds
#
# Revision: 0
# Processed by: cddbd v1.4PL0 Copyright (c) Steve Scherf et al.
# Submitted via: dBpowerAMP V4.0
#
DISCID=ba0cb80d
DTITLE=Greg Szlapczynski - La Part Du Diable
DYEAR=1900
DGENRE=Blues
TTITLE0=1962
TTITLE1=Serve You Well
TTITLE2=La Boite
TTITLE3=Rue des Lions
TTITLE4=Vamper Boogie Jam
TTITLE5=Blue Mountains
TTITLE6=Faster Pussycat
TTITLE7=La Part du Diable
TTITLE8=Café des Anges
TTITLE9=Czas Wyleczy Z Ran
TTITLE10=Valse à 30 ans
TTITLE11=On my way
TTITLE12=Matéo
EXTD=
EXTT0=
EXTT1=
EXTT2=
EXTT3=
EXTT4=
EXTT5=
EXTT6=
EXTT7=
EXTT8=
EXTT9=
EXTT10=
EXTT11=
EXTT12=
PLAYORDER=
